Coordinates
version=1
nRows=21
nColumns=22
inDegrees=yes

Units are S.I. units (second, meters, Newtons, ...)
If the header above contains a line with 'inDegrees', this indicates whether rotational values are in degrees (yes) or radians (no).

endheader
time	pelvis_tilt	pelvis_list	pelvis_rotation	pelvis_tx	pelvis_ty	pelvis_tz	hip_flexion_r	hip_adduction_r	hip_rotation_r	knee_angle_r	ankle_angle_r	subtalar_angle_r	hip_flexion_l	hip_adduction_l	hip_rotation_l	knee_angle_l	ankle_angle_l	subtalar_angle_l	lumbar_extension	lumbar_bending	lumbar_rotation
      0.01000000	      1.54054752	     -0.46240005	      4.98239711	     -0.57936680	      1.08587726	      1.14808060	     -3.12602524	      1.02357023	     -5.50958890	    -10.13764484	     12.71889128	     -2.35559487	     -2.82289389	      0.87739573	     -1.22459114	     -9.84152689	     12.48659205	     -3.59839684	     -2.79742782	     -1.87942023	     -4.91914946
      0.02000000	      1.53309143	     -0.46476714	      4.97011116	     -0.57930829	      1.08586673	      1.14806652	     -3.12305218	      1.02333679	     -5.51416874	    -10.13164299	     12.71927208	     -2.35543149	     -2.82043706	      0.87790312	     -1.22466549	     -9.83963180	     12.48644752	     -3.59860407	     -2.80482778	     -1.87803343	     -4.92083402
      0.03000000	      1.51252893	     -0.47449971	      4.94710172	     -0.57919619	      1.08583999	      1.14805322	     -3.10932262	      1.02774736	     -5.52981276	    -10.12052842	     12.71393727	     -2.35322171	     -2.81280015	      0.87205575	     -1.25093028	     -9.82563623	     12.48562221	     -3.60140746	     -2.78893641	     -1.86724991	     -4.91114119
      0.04000000	      1.50357817	     -0.47761084	      4.92953557	     -0.57912080	      1.08582857	      1.14803107	     -3.10543521	      1.02679889	     -5.53364785	    -10.11415682	     12.71376346	     -2.35293652	     -2.80902505	      0.87361981	     -1.25056878	     -9.82619631	     12.48558563	     -3.60157421	     -2.79712130	     -1.86392727	     -4.91392210
      0.05000000	      1.44691434	     -0.50273505	      4.88213989	     -0.57904317	      1.08575100	      1.14804430	     -3.03759063	      1.04237141	     -5.50709244	    -10.12352484	     12.69103672	     -2.34066063	     -2.74264295	      0.85527008	     -1.31975130	     -9.84772976	     12.49320814	     -3.61086895	     -2.74335040	     -1.83679969	     -4.87929314
      0.06000000	      1.42683996	     -0.50571218	      4.86269382	     -0.57892599	      1.08572356	      1.14802112	     -3.02594411	      1.04007722	     -5.51429201	    -10.11358500	     12.69672700	     -2.33902879	     -2.73332648	      0.85763831	     -1.33061732	     -9.83968068	     12.50055408	     -3.61243949	     -2.73106179	     -1.83415021	     -4.88893885
      0.07000000	      1.41873552	     -0.50863437	      4.84542807	     -0.57883050	      1.08571327	      1.14799601	     -3.02298379	      1.03894928	     -5.51807486	    -10.10881157	     12.69672502	     -2.33875152	     -2.73078196	      0.85957920	     -1.32967468	     -9.84197751	     12.50062566	     -3.61255493	     -2.73712278	     -1.83155204	     -4.89294023
      0.08000000	      1.38849481	     -0.51808566	      4.81852393	     -0.57871407	      1.08566926	      1.14797915	     -2.99080537	      1.04161424	     -5.51277059	    -10.11499042	     12.68630004	     -2.33175319	     -2.70258458	      0.85495520	     -1.37620349	     -9.84745496	     12.50971214	     -3.61822953	     -2.71010312	     -1.82009348	     -4.90284155
      0.09000000	      1.38228269	     -0.52057354	      4.80257410	     -0.57859763	      1.08565906	      1.14793650	     -2.99023966	      1.03941448	     -5.51411337	    -10.11311505	     12.68678281	     -2.33133710	     -2.70124065	      0.85838718	     -1.37334383	     -9.85364090	     12.50979553	     -3.61840815	     -2.71127094	     -1.81513070	     -4.90546223
      0.10000000	      1.37595522	     -0.52288016	      4.78755645	     -0.57847500	      1.08564867	      1.14789516	     -2.98900573	      1.03733740	     -5.51357786	    -10.11318658	     12.68677572	     -2.33069321	     -2.70063498	      0.86115644	     -1.37378199	     -9.85856118	     12.51086500	     -3.61890735	     -2.71067915	     -1.81063501	     -4.91121227
      0.11000000	      1.35836444	     -0.52731846	      4.76561532	     -0.57835710	      1.08561783	      1.14787148	     -2.96813403	      1.03710549	     -5.48687485	    -10.12779975	     12.68647376	     -2.32446030	     -2.68552820	      0.86119190	     -1.40638290	     -9.86559366	     12.52455781	     -3.62462908	     -2.69539675	     -1.80401355	     -4.93484522
      0.12000000	      1.35332078	     -0.52927582	      4.75043778	     -0.57822512	      1.08560709	      1.14782001	     -2.96877900	      1.03420599	     -5.48742420	    -10.12748623	     12.68708536	     -2.32395304	     -2.68613595	      0.86485851	     -1.40593358	     -9.87213345	     12.52515579	     -3.62500242	     -2.69250874	     -1.79781108	     -4.93762171
      0.13000000	      1.32240216	     -0.53764500	      4.70913401	     -0.57811373	      1.08555132	      1.14781782	     -2.92993583	      1.03598215	     -5.43668476	    -10.14457417	     12.69998037	     -2.31081096	     -2.64916485	      0.86211797	     -1.46783662	     -9.89550465	     12.54913054	     -3.63600100	     -2.66012894	     -1.78736271	     -4.92497673
      0.14000000	      1.31937553	     -0.53938231	      4.69445295	     -0.57796561	      1.08554183	      1.14776823	     -2.93191521	      1.03348526	     -5.43706053	    -10.14799016	     12.69935545	     -2.31075364	     -2.65419170	      0.86520310	     -1.46668762	     -9.89976238	     12.54927090	     -3.63598826	     -2.65419296	     -1.78285291	     -4.93250937
      0.15000000	      1.31359763	     -0.54094068	      4.67315930	     -0.57782395	      1.08552531	      1.14772473	     -2.92472058	      1.03003358	     -5.42259272	    -10.16255792	     12.70045302	     -2.31002328	     -2.66158082	      0.86889239	     -1.48327297	     -9.89181104	     12.55594184	     -3.63721958	     -2.64647823	     -1.77535084	     -4.95825476
      0.16000000	      1.31111261	     -0.54265319	      4.65613749	     -0.57767479	      1.08551502	      1.14767502	     -2.92715432	      1.02730913	     -5.42146929	    -10.16560544	     12.70132886	     -2.31004995	     -2.66678326	      0.87198969	     -1.48396277	     -9.89775793	     12.55690438	     -3.63740668	     -2.64028936	     -1.77033448	     -4.96547451
      0.17000000	      1.30658264	     -0.54476805	      4.62869645	     -0.57752906	      1.08549686	      1.14764211	     -2.91919595	      1.02457593	     -5.39249078	    -10.18453582	     12.71066893	     -2.30997253	     -2.67524332	      0.87424148	     -1.51821003	     -9.89119371	     12.57039010	     -3.64007731	     -2.63217888	     -1.76276175	     -4.99063706
      0.18000000	      1.30453364	     -0.54650913	      4.60983963	     -0.57738217	      1.08548325	      1.14759115	     -2.92197271	      1.02125250	     -5.39128058	    -10.18687871	     12.71196071	     -2.31013294	     -2.68023891	      0.87774587	     -1.51897965	     -9.89837812	     12.57144497	     -3.64027037	     -2.62602381	     -1.75677389	     -4.99667740
      0.19000000	      1.29900750	     -0.54976350	      4.56151522	     -0.57725128	      1.08545727	      1.14758958	     -2.91111191	      1.01884221	     -5.33127758	    -10.20499479	     12.73688555	     -2.31103937	     -2.68049994	      0.87873135	     -1.58892400	     -9.90597152	     12.59596254	     -3.64544093	     -2.61927626	     -1.74863358	     -4.99150943
      0.20000000	      1.29577009	     -0.55112020	      4.54130196	     -0.57710939	      1.08544214	      1.14753565	     -2.90982132	      1.01419338	     -5.32462137	    -10.21283134	     12.73506406	     -2.31139070	     -2.68804844	      0.88328753	     -1.59638772	     -9.90391347	     12.59889023	     -3.64555865	     -2.61312464	     -1.74030439	     -5.00941653
      0.21000000	      1.29360622	     -0.55249291	      4.52009609	     -0.57696701	      1.08542686	      1.14749230	     -2.90980440	      1.01028875	     -5.31244523	    -10.22113051	     12.73807602	     -2.31150815	     -2.69542237	      0.88684251	     -1.60999353	     -9.90427709	     12.60454504	     -3.64637372	     -2.60784788	     -1.73401786	     -5.03029775
